<svg width="3456" height="489" xmlns="http://www.w3.org/2000/svg" xmlns:xlink="http://www.w3.org/1999/xlink" xml:space="preserve" overflow="hidden"><defs><clipPath id="clip0"><rect x="504" y="718" width="3456" height="489"/></clipPath></defs><g clip-path="url(#clip0)" transform="translate(-504 -718)"><path d="M506.5 968C506.5 892.061 568.285 830.5 644.5 830.5 720.715 830.5 782.5 892.061 782.5 968 782.5 1043.94 720.715 1105.5 644.5 1105.5 568.285 1105.5 506.5 1043.94 506.5 968Z" stroke="#000000" stroke-width="4.58333" stroke-miterlimit="8" fill="none" fill-rule="evenodd"/><text font-family="Calibri,Calibri_MSFontService,sans-serif" font-weight="400" font-size="73" transform="matrix(1 0 0 1 625.361 993)">1</text><path d="M851.5 968C851.5 892.061 913.285 830.5 989.5 830.5 1065.72 830.5 1127.5 892.061 1127.5 968 1127.5 1043.94 1065.72 1105.5 989.5 1105.5 913.285 1105.5 851.5 1043.94 851.5 968Z" stroke="#000000" stroke-width="4.58333" stroke-miterlimit="8" fill="none" fill-rule="evenodd"/><text font-family="Calibri,Calibri_MSFontService,sans-serif" font-weight="400" font-size="73" transform="matrix(1 0 0 1 970.579 993)">2</text><path d="M1197.5 968C1197.5 892.061 1259.06 830.5 1335 830.5 1410.94 830.5 1472.5 892.061 1472.5 968 1472.5 1043.94 1410.94 1105.5 1335 1105.5 1259.06 1105.5 1197.5 1043.94 1197.5 968Z" stroke="#000000" stroke-width="4.58333" stroke-miterlimit="8" fill="none" fill-rule="evenodd"/><text font-family="Calibri,Calibri_MSFontService,sans-serif" font-weight="400" font-size="73" transform="matrix(1 0 0 1 1315.8 993)">3<tspan font-family="Arial,Arial_MSFontService,sans-serif" font-size="73" x="312.275" y="-42">.</tspan><tspan font-family="Arial,Arial_MSFontService,sans-serif" font-size="73" x="394.775" y="-42">.   </tspan><tspan font-family="Arial,Arial_MSFontService,sans-serif" font-size="73" x="353.525" y="46">.</tspan></text><path d="M1887.5 968C1887.5 892.061 1949.28 830.5 2025.5 830.5 2101.72 830.5 2163.5 892.061 2163.5 968 2163.5 1043.94 2101.72 1105.5 2025.5 1105.5 1949.28 1105.5 1887.5 1043.94 1887.5 968Z" stroke="#000000" stroke-width="4.58333" stroke-miterlimit="8" fill="none" fill-rule="evenodd"/><text font-family="Calibri,Calibri_MSFontService,sans-serif" font-weight="400" font-size="73" transform="matrix(1 0 0 1 2009.1 993)">x</text><path d="M2925.5 968C2925.5 892.061 2987.28 830.5 3063.5 830.5 3139.72 830.5 3201.5 892.061 3201.5 968 3201.5 1043.94 3139.72 1105.5 3063.5 1105.5 2987.28 1105.5 2925.5 1043.94 2925.5 968Z" stroke="#000000" stroke-width="4.58333" stroke-miterlimit="8" fill="none" fill-rule="evenodd"/><text font-family="Calibri,Calibri_MSFontService,sans-serif" font-weight="400" font-size="73" transform="matrix(1 0 0 1 3004.04 993)">m<tspan font-size="73" x="58.4375" y="0">-</tspan>2</text><path d="M3273.5 968C3273.5 892.061 3335.28 830.5 3411.5 830.5 3487.72 830.5 3549.5 892.061 3549.5 968 3549.5 1043.94 3487.72 1105.5 3411.5 1105.5 3335.28 1105.5 3273.5 1043.94 3273.5 968Z" stroke="#000000" stroke-width="4.58333" stroke-miterlimit="8" fill="none" fill-rule="evenodd"/><text font-family="Calibri,Calibri_MSFontService,sans-serif" font-weight="400" font-size="73" transform="matrix(1 0 0 1 3351.79 993)">m<tspan font-size="73" x="58.4375" y="0">-</tspan>1</text><path d="M3618.5 968C3618.5 892.061 3680.28 830.5 3756.5 830.5 3832.72 830.5 3894.5 892.061 3894.5 968 3894.5 1043.94 3832.72 1105.5 3756.5 1105.5 3680.28 1105.5 3618.5 1043.94 3618.5 968Z" stroke="#000000" stroke-width="4.58333" stroke-miterlimit="8" fill="none" fill-rule="evenodd"/><text font-family="Calibri,Calibri_MSFontService,sans-serif" font-weight="400" font-size="73" transform="matrix(1 0 0 1 3726.8 993)">m</text><path d="M2247.5 968C2247.5 892.061 2309.28 830.5 2385.5 830.5 2461.72 830.5 2523.5 892.061 2523.5 968 2523.5 1043.94 2461.72 1105.5 2385.5 1105.5 2309.28 1105.5 2247.5 1043.94 2247.5 968Z" stroke="#000000" stroke-width="4.58333" stroke-miterlimit="8" fill="none" fill-rule="evenodd"/><text font-family="Calibri,Calibri_MSFontService,sans-serif" font-weight="400" font-size="73" transform="matrix(1 0 0 1 2332.05 993)">x<tspan font-size="73" x="31.5105" y="0">+1</tspan><tspan font-family="Arial,Arial_MSFontService,sans-serif" font-size="73" x="346.365" y="-48">.</tspan><tspan font-family="Arial,Arial_MSFontService,sans-serif" font-size="73" x="428.865" y="-48">.   </tspan><tspan font-family="Arial,Arial_MSFontService,sans-serif" font-size="73" x="387.615" y="40">.</tspan></text><rect x="2200.5" y="720.5" width="1757" height="484" stroke="#2F528F" stroke-width="4.58333" stroke-miterlimit="8" fill="none"/></g></svg>